<?xml version="1.0" encoding="UTF-8"?>
<svg id="Calque_1" xmlns="http://www.w3.org/2000/svg" version="1.1" viewBox="0 0 167 167">
  <!-- Generator: Adobe Illustrator 29.5.0, SVG Export Plug-In . SVG Version: 2.1.0 Build 137)  -->
  <path d="M109.3,57.3c6.1,6.1,11.6,12.5,16.2,18.9l3.7-7.3c-4.3-5.8-9.2-11.6-14.7-16.8"/>
  <polygon points="125.5 76.3 125.5 76.2 125.5 76.3 125.5 76.3"/>
  <polygon points="91.3 142.2 91.3 142.2 91.3 142.2 91.3 142.2"/>
  <path d="M141.4,25.2c-17.4-17.1-57.4-5.2-89.2,26.9-7.7,7.6-14.1,15.6-19.4,23.7-9.8-19.3-10.7-37-2.3-45.4h0c7.3-7.3,21.4-7.6,37.6-1.2l7.6-4.9c-20.8-9.5-40-9.8-50.4.9h0c-11.8,12.1-9.7,34.6,3.1,57.9-13.1,23.6-15.1,46.5-3.4,58.2,17.4,17.1,57.4,5.5,89.5-26.9,7.7-7.6,14.2-15.7,19.5-23.8,9.7,19.5,10.8,37.2,2.2,45.8h0c-7,7-21.1,7.3-37.6.9l-7.3,4.9c20.8,9.5,39.7,9.8,50.1-.6h0c11.7-12,9.8-35-3-58.4,12.9-23.4,15-46.2,3-58ZM30.8,87.2s0,0,0,0h0,0ZM114.5,52.1c-7.6-7.6-15.6-14.1-23.7-19.4,19.3-9.6,36.9-10.6,45.4-2.3,13.4,13.1,3,49.2-26.9,78.8-8.4,8.5-17.2,15.4-25.9,20.6-8.6-5.1-17.5-12.1-26-20.6-6.1-6.1-11.6-12.5-15.9-19.2l-4,7.6c4.3,5.8,9.2,11.3,14.6,16.8h0c7.5,7.8,15.8,14.2,23.9,19.4-19.5,9.7-37.3,10.8-45.9,2.3h0c-12.8-12.8-3-48.9,27.2-78.8,8.4-8.4,17.2-15.3,25.9-20.5,8.7,5.2,17.7,11.9,26,20.5"/>
  <path d="M108.4,65.9l-7-7-2.1,2.1c-9.8,9.8-20.8,9.8-30.5,0l-2.1-2.1-7,7,2.1,2.1c9.8,9.8,9.8,20.8,0,30.5l-2.1,2.1,7,7,2.1-2.1c9.8-9.8,20.8-9.8,30.5,0l2.1,2.1,7-7-2.1-2.1c-9.8-9.8-9.8-20.8,0-30.5l2.1-2.1ZM93.8,93.1c-6.4-2.8-13.1-2.8-19.5,0,2.8-6.4,2.8-13.1,0-19.5,6.4,2.8,13.1,2.8,19.5,0-2.8,6.4-2.8,13.1,0,19.5Z"/>
  <polygon points="109.3 57.3 109.3 57.3 109.3 57.3 109.3 57.3"/>
  <polygon points="37.6 97.6 37.6 97.6 37.6 97.6 37.6 97.6"/>
</svg>