<?xml version="1.0" encoding="UTF-8"?>
<svg id="Calque_1" xmlns="http://www.w3.org/2000/svg" version="1.1" viewBox="0 0 168 167">
  <!-- Generator: Adobe Illustrator 29.5.0, SVG Export Plug-In . SVG Version: 2.1.0 Build 137)  -->
  <path d="M94.8,110.2v8.6l25.7-15.3v-42.5l-33-19.6v8.6l21.7,12.8-25.7,15-25.7-15,22.3-12.8v-8.6l-33.6,19.6v42.5l26.3,15.3v-8.6l-19-11v-30l26.3,15v38.8l3.7,2.1,3.7-2.1v-39.1l25.7-14.7v30l-18.4,11ZM25.1,61.3v-19c0-10.4,7.3-17.7,17.7-17.7h19v-7.3h-19c-14.4,0-25.1,10.7-25.1,25.1v19h7.3ZM142.5,61.3h7.3v-19c0-14.4-10.7-25.1-25.1-25.1h-19v7.3h19c10.4,0,17.7,7.3,17.7,17.7v19ZM25.1,105.3h-7.3v19c0,14.4,10.7,25.1,25.1,25.1h19v-7.3h-19c-10.4,0-17.7-7.3-17.7-17.7v-19ZM142.5,105.3v19c0,10.4-7.3,17.7-17.7,17.7h-19v7.3h19c14.4,0,25.1-10.7,25.1-25.1v-19h-7.3Z"/>
</svg>